<?xml version="1.0" encoding="UTF-8" standalone="no"?>
<!-- Generator: Adobe Illustrator 16.0.0, SVG Export Plug-In . SVG Version: 6.00 Build 0)  -->

<svg
   xmlns:dc="http://purl.org/dc/elements/1.1/"
   xmlns:cc="http://creativecommons.org/ns#"
   xmlns:rdf="http://www.w3.org/1999/02/22-rdf-syntax-ns#"
   xmlns:svg="http://www.w3.org/2000/svg"
   xmlns="http://www.w3.org/2000/svg"
   xmlns:sodipodi="http://sodipodi.sourceforge.net/DTD/sodipodi-0.dtd"
   xmlns:inkscape="http://www.inkscape.org/namespaces/inkscape"
   version="1.1"
   id="Calque_1"
   x="0px"
   y="0px"
   width="541.63306"
   height="137.011"
   viewBox="0 0 541.63303 137.011"
   enable-background="new 0 0 595.28 841.89"
   xml:space="preserve"
   sodipodi:docname="Jepsen-brite.svg"
   inkscape:version="0.92.3 (2405546, 2018-03-11)"><metadata
   id="metadata79"><rdf:RDF><cc:Work
       rdf:about=""><dc:format>image/svg+xml</dc:format><dc:type
         rdf:resource="http://purl.org/dc/dcmitype/StillImage" /></cc:Work></rdf:RDF></metadata><defs
   id="defs77" /><sodipodi:namedview
   pagecolor="#ffffff"
   bordercolor="#666666"
   borderopacity="1"
   objecttolerance="10"
   gridtolerance="10"
   guidetolerance="10"
   inkscape:pageopacity="0"
   inkscape:pageshadow="2"
   inkscape:window-width="1366"
   inkscape:window-height="648"
   id="namedview75"
   showgrid="false"
   inkscape:zoom="0.28032165"
   inkscape:cx="-303.64032"
   inkscape:cy="64.776993"
   inkscape:window-x="0"
   inkscape:window-y="27"
   inkscape:window-maximized="1"
   inkscape:current-layer="g72" />
<g
   id="g72"
   transform="translate(-30.507448,-348.711)">
	<path
   display="none"
   d="m 586.928,505.869 c -191.976,0 -383.951,0 -575.927,0 0,-55.326 0,-110.652 0,-165.979 191.976,0 383.951,0 575.927,0 0,55.327 0,110.653 0,165.979 z M 394.716,442.072 c 5.159,0 9.655,0.229 14.117,-0.052 7.249,-0.456 12.304,-6.832 11.634,-14.049 -0.397,-4.277 -2.771,-7.328 -5.935,-10.069 0.708,-1.303 1.433,-2.396 1.927,-3.585 2.024,-4.873 0.221,-10.225 -4.307,-12.987 -3.709,-2.264 -14.651,-2.155 -16.709,0.259 -0.473,0.554 -0.695,1.49 -0.698,2.251 -0.042,12.604 -0.029,25.208 -0.029,38.232 z m -151.573,11.391 c 1.698,0.339 3.209,-0.223 3.866,-1.153 2.237,-3.168 -0.077,-7.093 1.323,-10.49 11.6,2.539 16.655,-1.522 16.665,-13.335 0.002,-2.165 0.037,-4.33 -0.013,-6.494 -0.154,-6.721 -4.449,-11.283 -10.652,-11.36 -6.303,-0.078 -10.964,4.193 -11.122,10.943 -0.249,10.634 -0.067,21.279 -0.067,31.889 z m 98.275,-23.389 c -3.247,1.021 -3.247,1.021 -4.66,4.035 -1.678,3.575 -5.441,5.091 -8.711,3.372 -1.658,-0.872 -2.906,-2.205 -3.188,-4.207 -0.347,-2.464 1.85,-2.478 3.18,-3.12 3.73,-1.802 7.5,-3.551 11.365,-5.032 2.185,-0.838 2.583,-2.194 2.414,-4.236 -0.482,-5.858 -5.016,-10.185 -10.847,-10.242 -5.853,-0.058 -10.547,4.099 -10.946,10.007 -0.246,3.645 -0.16,7.32 -0.054,10.977 0.194,6.701 5.193,11.565 11.401,11.236 6.228,-0.331 10.591,-5.887 10.046,-12.79 z m -115,-0.011 c -3.235,1.041 -3.235,1.041 -4.653,4.059 -1.684,3.581 -5.442,5.082 -8.716,3.352 -1.658,-0.875 -2.905,-2.21 -3.176,-4.214 -0.333,-2.462 1.867,-2.468 3.196,-3.11 3.73,-1.803 7.5,-3.553 11.366,-5.033 2.196,-0.841 2.565,-2.217 2.395,-4.248 -0.491,-5.86 -5.029,-10.174 -10.865,-10.223 -5.848,-0.049 -10.533,4.118 -10.927,10.03 -0.243,3.646 -0.16,7.321 -0.051,10.979 0.199,6.695 5.218,11.556 11.427,11.209 6.232,-0.349 10.594,-5.93 10.004,-12.801 z m 345.43,-0.059 c -2.349,0.437 -3.931,1.153 -4.555,3.505 -0.891,3.36 -3.308,4.88 -6.779,4.483 -3.533,-0.403 -4.993,-2.669 -5.483,-6.239 4.862,-2.184 9.481,-4.39 14.212,-6.326 2.182,-0.893 3.009,-2.082 2.888,-4.475 -0.285,-5.626 -4.458,-10.004 -10.149,-10.287 -5.866,-0.292 -10.595,3.292 -11.209,8.984 -0.427,3.954 -0.396,7.984 -0.236,11.966 0.274,6.893 5.151,11.598 11.344,11.243 6.077,-0.347 10.169,-5.443 9.967,-12.854 z m -403.16,-1.862 c -3.682,0.392 -4.833,2.249 -3.725,5.772 1.596,5.071 6.987,9.02 12.521,8.963 5.721,-0.06 11.806,-4.283 12.361,-9.688 1.13,-11.018 0.464,-22.094 0.357,-33.388 -5.868,0 -11.186,0.149 -16.49,-0.055 -3.249,-0.125 -4.285,1.395 -4.504,4.604 5.579,0 10.864,0 16.608,0 0,9.097 0.25,17.882 -0.112,26.644 -0.165,3.988 -2.906,6.646 -7.046,7.271 -3.878,0.586 -6.703,-1.079 -8.764,-4.355 -1.14,-1.812 -0.595,-3.899 -1.206,-5.768 z m 347.824,-28.401 c -2.26,0.406 -4.711,0.286 -4.503,3.044 0.341,4.504 -0.372,8.615 -4.175,12.773 3.897,-0.28 4.22,1.352 4.133,3.597 -0.152,3.982 -0.098,7.974 -0.028,11.96 0.122,7.055 4.986,12.037 11.382,11.75 6.451,-0.29 10.53,-5.367 10.161,-12.704 -2.319,0.505 -4.13,1.117 -4.922,3.992 -0.822,2.987 -3.512,4.289 -6.729,3.82 -2.771,-0.404 -4.813,-2.022 -4.94,-4.781 -0.262,-5.715 -0.078,-11.45 -0.078,-16.385 4.582,-3.282 11.82,2.902 14.224,-6.011 -5.044,0 -9.63,0 -14.524,0 -0.001,-3.882 -0.001,-7.332 -0.001,-11.055 z m -215.536,17.655 c -1.726,-5.226 -4.931,-7.47 -10.018,-6.584 -3.653,0.636 -7.01,4.671 -6.627,8.255 0.538,5.043 3.536,7.672 8.628,7.864 0.331,0.013 0.676,0.031 0.987,0.133 2.752,0.899 4.863,2.597 4.74,5.646 -0.108,2.673 -1.669,4.706 -4.521,5.21 -3.098,0.547 -5.665,-0.377 -7.015,-3.381 -0.587,-1.308 -0.711,-2.822 -1.05,-4.258 -4.174,1.451 -4.174,1.451 -4.033,3.336 0.335,4.482 5.472,9.06 10.377,9.247 5.289,0.202 9.917,-3.516 10.638,-8.547 0.892,-6.212 -1.969,-9.492 -10.078,-11.545 -2.006,-0.508 -3.914,-1.118 -4.026,-3.678 -0.075,-1.72 0.843,-2.788 2.349,-3.448 2.065,-0.904 3.67,-0.104 4.631,1.656 1.624,2.971 3.179,1.099 5.018,0.094 z m 74.794,24.848 c 2.604,-0.382 4.438,-0.796 4.388,-3.584 -0.113,-6.322 0.146,-12.661 -0.218,-18.965 -0.296,-5.117 -4.927,-8.897 -10.208,-9.038 -5.465,-0.145 -10.415,3.137 -10.76,8.272 -0.516,7.696 -0.134,15.452 -0.134,23.221 3.507,-0.119 4.36,-1.882 4.226,-4.888 -0.21,-4.65 -0.083,-9.317 -0.047,-13.978 0.037,-4.947 2.349,-8.004 6.107,-8.18 3.876,-0.182 6.575,3.084 6.63,8.224 0.065,6.144 0.016,12.289 0.016,18.916 z m 76.899,-19.371 c 4.707,-1.611 4.981,-2.149 3.343,-5.818 -2.03,-4.548 -6.085,-6.83 -11.276,-6.345 -4.728,0.441 -8.892,3.834 -9.235,8.916 -0.509,7.487 -0.131,15.034 -0.131,22.563 3.705,-0.16 4.742,-1.921 4.58,-5.209 -0.254,-5.135 -0.189,-10.297 -0.017,-15.439 0.157,-4.687 4.007,-7.383 8.093,-6.043 3.443,1.13 4.119,3.991 4.643,7.375 z m 42.445,7.468 c -2.63,0.052 -4.017,1.379 -4.884,3.893 -0.965,2.797 -3.237,4.091 -6.293,3.785 -2.572,-0.259 -4.258,-1.571 -5.188,-4.003 -0.681,-1.779 -0.559,-3.6 -0.563,-5.421 -0.014,-5.884 -0.005,-11.767 -0.005,-17.737 -3.463,0.664 -4.601,2.068 -4.456,4.979 0.257,5.148 0.01,10.318 0.095,15.477 0.111,6.874 4.764,11.635 11.015,11.572 5.325,-0.053 11.917,-5.455 10.279,-12.545 z M 133.363,359.417 c -0.245,-3.49 -2.382,-5.242 -5.513,-5.17 -3.134,0.072 -5.322,1.872 -5.1,5.368 0.211,3.345 2.419,5.15 5.527,5.148 3.247,-0.003 5.076,-2.026 5.086,-5.346 z m -92.571,79.037 c -3.062,0.332 -4.768,2.29 -4.681,5.26 0.099,3.383 1.984,5.654 5.667,5.404 3.386,-0.23 5.137,-2.56 4.902,-5.693 -0.238,-3.194 -2.524,-4.853 -5.888,-4.971 z m 107.009,18.953 c -3.696,0.123 -5.63,2.054 -5.701,5.256 -0.071,3.248 1.842,5.329 5.246,5.274 3.27,-0.052 5.416,-1.935 5.494,-5.206 0.078,-3.334 -2.13,-4.984 -5.039,-5.324 z m 10.312,-79.004 c -0.345,-3.391 -2.236,-5.39 -5.75,-5.483 -3.317,-0.088 -4.877,2.215 -4.971,5.069 -0.115,3.544 2.208,5.546 5.64,5.628 3.187,0.077 4.589,-2.144 5.081,-5.214 z m -118.299,6.761 c 0.31,2.844 1.917,4.912 5.322,4.749 3.284,-0.157 5.167,-2.221 5.166,-5.447 0,-3.312 -2.119,-5.378 -5.311,-5.179 -2.99,0.188 -5.159,2.033 -5.177,5.877 z m -4.228,23.037 c -3.003,0.611 -5.192,2.306 -5.074,5.604 0.113,3.159 1.93,5.397 5.313,5.288 3.251,-0.104 5.207,-2.07 5.151,-5.42 -0.056,-3.343 -2.191,-4.953 -5.39,-5.472 z m 25.96,64.841 c 2.421,-0.51 4.734,-1.911 4.459,-5.398 -0.25,-3.188 -2.132,-5.267 -5.462,-5.179 -3.309,0.087 -5.323,2.202 -5.163,5.42 0.154,3.108 2.084,5.118 6.166,5.157 z m 27.49,12.68 c 3.452,-0.37 5.746,-2.017 5.732,-5.308 -0.013,-3.2 -2.196,-5.428 -5.359,-5.4 -3.033,0.026 -5.425,1.822 -5.437,5.274 -0.011,3.396 2.17,4.95 5.064,5.434 z M 67.242,357.76 c -3.038,0.355 -5.211,1.785 -5.309,5.212 -0.099,3.474 1.925,5.182 5.194,5.198 3.276,0.016 5.4,-1.915 5.498,-5.129 0.1,-3.265 -1.943,-5.073 -5.383,-5.281 z m 53.57,115.305 c -3.119,0.512 -5.491,2.146 -5.582,5.343 -0.089,3.152 1.882,5.437 5.208,5.377 3.111,-0.057 5.39,-1.873 5.526,-5.188 0.138,-3.365 -2.031,-4.998 -5.152,-5.532 z M 96.817,348.711 c -3.321,0.224 -5.021,2.124 -4.955,5.469 0.069,3.485 2.245,5.114 5.482,5.011 3.311,-0.106 5.319,-2.261 5.238,-5.454 -0.082,-3.287 -2.386,-4.889 -5.765,-5.026 z m 19.17,116.826 c 2.09,-0.308 3.829,-1.168 3.989,-3.608 0.152,-2.329 -0.974,-3.913 -3.378,-4.069 -2.543,-0.165 -4.243,1.209 -4.361,3.747 -0.107,2.301 1.382,3.612 3.75,3.93 z M 93.484,459.09 c -2.125,0.503 -3.905,1.421 -3.816,3.863 0.09,2.48 1.43,4.103 4.09,3.841 2.257,-0.223 3.598,-1.664 3.521,-3.996 -0.078,-2.368 -1.594,-3.46 -3.795,-3.708 z m 43.177,-4.217 c 2.125,-0.621 3.716,-1.867 3.414,-4.526 -0.27,-2.376 -1.775,-3.605 -4.088,-3.346 -2.304,0.259 -3.553,1.893 -3.413,4.157 0.138,2.245 1.469,3.627 4.087,3.715 z M 62.224,389.795 c -2.313,0.144 -3.87,1.421 -3.997,3.621 -0.145,2.497 1.467,4.136 3.967,4.054 2.16,-0.071 3.776,-1.449 3.739,-3.813 -0.036,-2.271 -1.395,-3.592 -3.709,-3.862 z m 60.088,-18.914 c -2.349,0.408 -4.181,1.526 -4.145,4.062 0.032,2.18 1.479,3.74 3.703,3.878 2.556,0.159 4.023,-1.434 4.05,-3.907 0.024,-2.25 -1.5,-3.489 -3.608,-4.033 z m 18.073,14.015 c -2.357,0.17 -3.915,1.426 -4.177,3.622 -0.273,2.289 1.205,3.966 3.362,4.229 2.465,0.3 4.186,-1.213 4.344,-3.738 0.145,-2.332 -1.466,-3.536 -3.529,-4.113 z m -81.581,47.878 c -2.195,0.32 -3.643,1.618 -3.626,3.884 0.017,2.272 1.552,3.809 3.753,3.862 2.505,0.061 4.049,-1.641 3.938,-4.108 -0.1,-2.246 -1.702,-3.454 -4.065,-3.638 z m -4.611,-14.906 c 2.135,-0.372 3.67,-1.436 3.791,-3.818 0.122,-2.409 -1.314,-3.889 -3.499,-4.051 -2.529,-0.187 -4.095,1.463 -4.111,3.966 -0.016,2.283 1.498,3.552 3.819,3.903 z m 417.975,-15.072 c 0.233,2.158 1.312,3.83 3.635,3.909 2.327,0.08 3.73,-1.494 3.801,-3.739 0.066,-2.062 -1.312,-3.535 -3.312,-3.73 -2.309,-0.224 -3.616,1.274 -4.124,3.56 z M 73.261,450.789 c -2.246,0.153 -3.427,1.456 -3.442,3.828 -0.016,2.427 1.475,3.812 3.627,3.92 2.562,0.129 3.984,-1.594 3.86,-4.112 -0.113,-2.274 -1.519,-3.573 -4.045,-3.636 z m 8.77,-73.244 c -0.368,-1.793 -1.159,-3.544 -3.565,-3.685 -2.513,-0.147 -4.186,1.213 -4.317,3.673 -0.124,2.326 1.539,3.533 3.755,3.702 2.349,0.179 3.602,-1.162 4.127,-3.69 z m 16.047,-11.754 c -2.457,0.212 -3.763,1.627 -3.559,3.896 0.196,2.18 1.586,3.726 3.986,3.467 2.194,-0.236 3.751,-1.488 3.542,-3.922 -0.201,-2.342 -1.726,-3.412 -3.969,-3.441 z"
   id="path2"
   inkscape:connector-curvature="0"
   style="clip-rule:evenodd;display:none;fill:#fefdfe;fill-rule:evenodd" />
	<path
   d="m 394.716,442.072 c 0,-13.024 -0.013,-25.628 0.029,-38.231 0.003,-0.761 0.226,-1.697 0.698,-2.251 2.058,-2.414 13,-2.522 16.709,-0.259 4.527,2.762 6.331,8.114 4.307,12.987 -0.494,1.189 -1.219,2.282 -1.927,3.585 3.163,2.741 5.537,5.792 5.935,10.069 0.67,7.217 -4.385,13.593 -11.634,14.049 -4.462,0.28 -8.958,0.051 -14.117,0.051 z m 4.623,-4.393 c 5.88,-0.206 11.919,1.846 15.64,-4.326 1.782,-2.957 1.629,-6.133 -0.371,-8.895 -4,-5.524 -9.789,-3.183 -15.269,-3.472 0,5.592 0,10.834 0,16.693 z m 0.01,-21.652 c 4.471,-0.462 9.204,1.947 12.512,-2.672 1.35,-1.885 1.473,-4.115 -0.062,-6.04 -3.374,-4.229 -7.881,-3.095 -12.45,-2.708 0,3.853 0,7.422 0,11.42 z"
   id="path4"
   inkscape:connector-curvature="0"
   style="clip-rule:evenodd;fill:#ffffff;fill-rule:evenodd" />
	<path
   d="m 243.143,453.463 c 0,-10.61 -0.182,-21.255 0.066,-31.889 0.158,-6.75 4.819,-11.021 11.122,-10.943 6.203,0.077 10.498,4.639 10.652,11.36 0.05,2.164 0.015,4.329 0.013,6.494 -0.01,11.813 -5.065,15.874 -16.665,13.335 -1.399,3.397 0.914,7.322 -1.323,10.49 -0.656,0.93 -2.167,1.492 -3.865,1.153 z m 4.779,-27.118 c 0,1.826 -0.045,3.652 0.009,5.477 0.112,3.747 2.157,5.882 5.8,6.167 3.731,0.292 6.146,-1.678 6.439,-5.373 0.313,-3.953 0.287,-7.963 0.018,-11.921 -0.257,-3.777 -2.946,-5.678 -6.438,-5.501 -3.515,0.179 -5.741,2.372 -5.821,6.173 -0.034,1.658 -0.005,3.319 -0.007,4.978 z"
   id="path6"
   inkscape:connector-curvature="0"
   style="clip-rule:evenodd;fill:#ffffff;fill-rule:evenodd" />
	<path
   d="m 341.418,430.074 c 0.545,6.902 -3.818,12.459 -10.045,12.79 -6.208,0.329 -11.207,-4.535 -11.401,-11.236 -0.106,-3.656 -0.192,-7.332 0.054,-10.977 0.399,-5.908 5.094,-10.065 10.946,-10.007 5.831,0.057 10.364,4.384 10.847,10.242 0.169,2.042 -0.229,3.398 -2.414,4.236 -3.865,1.481 -7.635,3.23 -11.365,5.032 -1.33,0.643 -3.526,0.656 -3.18,3.12 0.281,2.002 1.529,3.335 3.188,4.207 3.27,1.719 7.033,0.203 8.711,-3.372 1.412,-3.013 1.412,-3.013 4.659,-4.035 z m -16.213,-3.788 c 4.013,-1.894 8.217,-3.062 11.887,-5.665 -1.174,-4.17 -3.718,-6.079 -7.725,-5.272 -4.084,0.822 -5.31,4.148 -4.162,10.937 z"
   id="path8"
   inkscape:connector-curvature="0"
   style="clip-rule:evenodd;fill:#ffffff;fill-rule:evenodd" />
	<path
   d="m 226.418,430.063 c 0.589,6.871 -3.772,12.452 -10.005,12.8 -6.209,0.347 -11.228,-4.514 -11.427,-11.209 -0.109,-3.657 -0.191,-7.333 0.051,-10.979 0.394,-5.912 5.079,-10.08 10.927,-10.03 5.836,0.049 10.374,4.362 10.865,10.223 0.17,2.031 -0.199,3.407 -2.395,4.248 -3.866,1.48 -7.636,3.23 -11.366,5.033 -1.33,0.643 -3.529,0.648 -3.196,3.11 0.271,2.004 1.518,3.339 3.176,4.214 3.274,1.73 7.032,0.229 8.716,-3.352 1.42,-3.017 1.42,-3.017 4.654,-4.058 z m -4.193,-9.05 c -2.088,-4.907 -4.705,-6.61 -7.961,-5.682 -4.083,1.164 -5.31,4.36 -3.929,10.908 3.916,-1.72 7.751,-3.407 11.89,-5.226 z"
   id="path10"
   inkscape:connector-curvature="0"
   style="clip-rule:evenodd;fill:#ffffff;fill-rule:evenodd" />
	<path
   d="m 571.848,430.004 c 0.202,7.411 -3.89,12.507 -9.969,12.854 -6.192,0.354 -11.069,-4.351 -11.344,-11.243 -0.159,-3.982 -0.19,-8.013 0.236,-11.966 0.614,-5.692 5.343,-9.276 11.209,-8.984 5.691,0.283 9.864,4.661 10.149,10.287 0.121,2.393 -0.706,3.582 -2.888,4.475 -4.73,1.937 -9.35,4.143 -14.212,6.326 0.49,3.57 1.95,5.836 5.483,6.239 3.472,0.396 5.889,-1.123 6.779,-4.483 0.626,-2.352 2.208,-3.069 4.557,-3.505 z m -16.635,-3.417 c 4.332,-2.199 8.682,-3.277 12.267,-5.946 -1.801,-4.305 -4.346,-6.262 -7.356,-5.403 -5.513,1.572 -5.461,5.957 -4.911,11.349 z"
   id="path12"
   inkscape:connector-curvature="0"
   style="clip-rule:evenodd;fill:#ffffff;fill-rule:evenodd" />
	<path
   d="m 168.688,428.142 c 0.611,1.869 0.066,3.956 1.206,5.767 2.061,3.276 4.886,4.941 8.764,4.355 4.14,-0.625 6.881,-3.282 7.046,-7.271 0.362,-8.762 0.112,-17.547 0.112,-26.644 -5.745,0 -11.029,0 -16.608,0 0.219,-3.209 1.255,-4.729 4.504,-4.604 5.304,0.204 10.622,0.055 16.49,0.055 0.107,11.294 0.773,22.37 -0.357,33.388 -0.555,5.405 -6.64,9.629 -12.361,9.688 -5.534,0.057 -10.925,-3.892 -12.521,-8.963 -1.109,-3.522 0.043,-5.38 3.725,-5.771 z"
   id="path14"
   inkscape:connector-curvature="0"
   style="clip-rule:evenodd;fill:#ffffff;fill-rule:evenodd" />
	<path
   d="m 516.512,399.741 c 0,3.724 0,7.173 0,11.057 4.895,0 9.48,0 14.524,0 -2.403,8.913 -9.642,2.729 -14.224,6.011 0,4.935 -0.184,10.67 0.078,16.385 0.127,2.759 2.169,4.377 4.94,4.781 3.217,0.469 5.906,-0.833 6.729,-3.82 0.792,-2.875 2.603,-3.487 4.922,-3.992 0.369,7.337 -3.71,12.414 -10.161,12.704 -6.396,0.287 -11.26,-4.695 -11.382,-11.75 -0.069,-3.986 -0.124,-7.979 0.028,-11.96 0.087,-2.246 -0.235,-3.877 -4.133,-3.597 3.803,-4.159 4.516,-8.27 4.175,-12.773 -0.207,-2.76 2.244,-2.64 4.504,-3.046 z"
   id="path16"
   inkscape:connector-curvature="0"
   style="clip-rule:evenodd;fill:#ffffff;fill-rule:evenodd" />
	<path
   d="m 300.976,417.396 c -1.839,1.006 -3.394,2.877 -5.016,-0.094 -0.961,-1.76 -2.566,-2.56 -4.631,-1.656 -1.506,0.66 -2.424,1.728 -2.349,3.448 0.112,2.56 2.02,3.17 4.026,3.678 8.109,2.053 10.97,5.333 10.078,11.545 -0.721,5.031 -5.349,8.749 -10.638,8.547 -4.905,-0.188 -10.042,-4.765 -10.377,-9.247 -0.141,-1.885 -0.141,-1.885 4.033,-3.336 0.338,1.436 0.463,2.95 1.05,4.258 1.35,3.004 3.917,3.928 7.015,3.381 2.851,-0.504 4.413,-2.537 4.521,-5.21 0.123,-3.049 -1.988,-4.746 -4.74,-5.646 -0.311,-0.102 -0.656,-0.12 -0.987,-0.133 -5.092,-0.192 -8.09,-2.821 -8.628,-7.864 -0.383,-3.584 2.974,-7.62 6.627,-8.255 5.085,-0.886 8.29,1.358 10.016,6.584 z"
   id="path18"
   inkscape:connector-curvature="0"
   style="clip-rule:evenodd;fill:#ffffff;fill-rule:evenodd" />
	<path
   d="m 375.77,442.244 c 0,-6.627 0.05,-12.772 -0.016,-18.915 -0.055,-5.139 -2.754,-8.405 -6.63,-8.224 -3.759,0.176 -6.07,3.233 -6.107,8.18 -0.036,4.66 -0.163,9.327 0.047,13.978 0.135,3.006 -0.719,4.769 -4.226,4.888 0,-7.769 -0.382,-15.524 0.134,-23.221 0.345,-5.135 5.295,-8.417 10.76,-8.272 5.281,0.14 9.912,3.921 10.208,9.038 0.364,6.304 0.104,12.643 0.218,18.965 0.049,2.787 -1.784,3.201 -4.388,3.583 z"
   id="path20"
   inkscape:connector-curvature="0"
   style="clip-rule:evenodd;fill:#ffffff;fill-rule:evenodd" />
	<path
   d="m 452.669,422.873 c -0.524,-3.384 -1.2,-6.245 -4.644,-7.375 -4.086,-1.34 -7.936,1.356 -8.093,6.043 -0.173,5.142 -0.237,10.304 0.017,15.439 0.162,3.288 -0.875,5.049 -4.58,5.209 0,-7.529 -0.378,-15.076 0.131,-22.563 0.344,-5.082 4.508,-8.475 9.235,-8.916 5.191,-0.484 9.246,1.797 11.276,6.345 1.639,3.669 1.365,4.207 -3.342,5.818 z"
   id="path22"
   inkscape:connector-curvature="0"
   style="clip-rule:evenodd;fill:#ffffff;fill-rule:evenodd" />
	<path
   d="m 495.114,430.341 c 1.638,7.09 -4.954,12.492 -10.279,12.546 -6.251,0.063 -10.903,-4.698 -11.015,-11.572 -0.085,-5.159 0.162,-10.329 -0.095,-15.477 -0.145,-2.912 0.993,-4.315 4.456,-4.979 0,5.97 -0.009,11.853 0.005,17.737 0.005,1.821 -0.117,3.642 0.563,5.421 0.93,2.432 2.615,3.744 5.188,4.003 3.056,0.306 5.328,-0.988 6.293,-3.785 0.868,-2.515 2.254,-3.842 4.884,-3.894 z"
   id="path24"
   inkscape:connector-curvature="0"
   style="clip-rule:evenodd;fill:#ffffff;fill-rule:evenodd" />
	<path
   d="m 133.363,359.417 c -0.011,3.321 -1.839,5.344 -5.086,5.346 -3.108,0.002 -5.316,-1.803 -5.527,-5.148 -0.222,-3.496 1.966,-5.296 5.1,-5.368 3.131,-0.073 5.268,1.68 5.513,5.17 z"
   id="path26"
   inkscape:connector-curvature="0"
   style="clip-rule:evenodd;fill:#ee2542;fill-rule:evenodd" />
	<path
   d="m 40.792,438.454 c 3.363,0.118 5.65,1.777 5.889,4.971 0.234,3.134 -1.517,5.463 -4.902,5.693 -3.684,0.25 -5.569,-2.021 -5.667,-5.404 -0.087,-2.97 1.618,-4.928 4.68,-5.26 z"
   id="path28"
   inkscape:connector-curvature="0"
   style="clip-rule:evenodd;fill:#ee2542;fill-rule:evenodd" />
	<path
   d="m 147.801,457.407 c 2.909,0.34 5.117,1.99 5.038,5.324 -0.078,3.271 -2.224,5.154 -5.494,5.206 -3.403,0.055 -5.317,-2.026 -5.246,-5.274 0.072,-3.202 2.006,-5.133 5.702,-5.256 z"
   id="path30"
   inkscape:connector-curvature="0"
   style="clip-rule:evenodd;fill:#ee2542;fill-rule:evenodd" />
	<path
   d="m 158.113,378.403 c -0.492,3.069 -1.894,5.291 -5.082,5.214 -3.431,-0.082 -5.755,-2.084 -5.64,-5.628 0.093,-2.854 1.653,-5.158 4.971,-5.069 3.514,0.094 5.406,2.092 5.751,5.483 z"
   id="path32"
   inkscape:connector-curvature="0"
   style="clip-rule:evenodd;fill:#ee2542;fill-rule:evenodd" />
	<path
   d="m 39.814,385.164 c 0.018,-3.844 2.187,-5.689 5.177,-5.876 3.192,-0.199 5.311,1.867 5.311,5.179 0,3.226 -1.882,5.29 -5.166,5.447 -3.405,0.162 -5.012,-1.906 -5.322,-4.75 z"
   id="path34"
   inkscape:connector-curvature="0"
   style="clip-rule:evenodd;fill:#ee2542;fill-rule:evenodd" />
	<path
   d="m 35.586,408.201 c 3.199,0.519 5.334,2.128 5.39,5.472 0.056,3.35 -1.899,5.315 -5.151,5.42 -3.383,0.109 -5.2,-2.129 -5.313,-5.288 -0.118,-3.298 2.071,-4.992 5.074,-5.604 z"
   id="path36"
   inkscape:connector-curvature="0"
   style="clip-rule:evenodd;fill:#ee2542;fill-rule:evenodd" />
	<path
   d="m 61.546,473.042 c -4.082,-0.039 -6.012,-2.049 -6.166,-5.157 -0.16,-3.218 1.854,-5.333 5.163,-5.42 3.33,-0.088 5.212,1.99 5.462,5.179 0.275,3.487 -2.038,4.888 -4.459,5.398 z"
   id="path38"
   inkscape:connector-curvature="0"
   style="clip-rule:evenodd;fill:#ee2542;fill-rule:evenodd" />
	<path
   d="m 89.036,485.722 c -2.895,-0.483 -5.075,-2.038 -5.063,-5.434 0.012,-3.452 2.404,-5.248 5.437,-5.274 3.163,-0.027 5.346,2.2 5.359,5.4 0.013,3.291 -2.281,4.938 -5.733,5.308 z"
   id="path40"
   inkscape:connector-curvature="0"
   style="clip-rule:evenodd;fill:#ee2542;fill-rule:evenodd" />
	<path
   d="m 67.242,357.76 c 3.44,0.208 5.483,2.016 5.383,5.281 -0.098,3.214 -2.222,5.145 -5.498,5.129 -3.269,-0.016 -5.292,-1.724 -5.194,-5.198 0.098,-3.427 2.272,-4.856 5.309,-5.212 z"
   id="path42"
   inkscape:connector-curvature="0"
   style="clip-rule:evenodd;fill:#ee2542;fill-rule:evenodd" />
	<path
   d="m 120.812,473.065 c 3.121,0.533 5.29,2.167 5.152,5.532 -0.136,3.314 -2.415,5.131 -5.526,5.188 -3.326,0.06 -5.296,-2.225 -5.208,-5.377 0.091,-3.197 2.463,-4.831 5.582,-5.343 z"
   id="path44"
   inkscape:connector-curvature="0"
   style="clip-rule:evenodd;fill:#ee2542;fill-rule:evenodd" />
	<path
   d="m 96.817,348.711 c 3.379,0.137 5.683,1.739 5.766,5.026 0.081,3.192 -1.928,5.348 -5.238,5.454 -3.237,0.103 -5.413,-1.526 -5.482,-5.011 -0.067,-3.345 1.633,-5.245 4.954,-5.469 z"
   id="path46"
   inkscape:connector-curvature="0"
   style="clip-rule:evenodd;fill:#ee2542;fill-rule:evenodd" />
	<path
   d="m 115.987,465.537 c -2.368,-0.318 -3.857,-1.629 -3.75,-3.931 0.118,-2.538 1.817,-3.912 4.361,-3.747 2.404,0.156 3.53,1.74 3.378,4.069 -0.16,2.441 -1.899,3.301 -3.989,3.609 z"
   id="path48"
   inkscape:connector-curvature="0"
   style="clip-rule:evenodd;fill:#b15972;fill-rule:evenodd" />
	<path
   d="m 93.484,459.09 c 2.2,0.248 3.716,1.34 3.795,3.708 0.077,2.332 -1.264,3.773 -3.521,3.996 -2.66,0.262 -4,-1.36 -4.09,-3.841 -0.089,-2.442 1.691,-3.36 3.816,-3.863 z"
   id="path50"
   inkscape:connector-curvature="0"
   style="clip-rule:evenodd;fill:#b15972;fill-rule:evenodd" />
	<path
   d="m 136.661,454.873 c -2.617,-0.088 -3.948,-1.47 -4.087,-3.715 -0.14,-2.265 1.109,-3.898 3.413,-4.157 2.313,-0.26 3.819,0.97 4.088,3.346 0.301,2.659 -1.29,3.905 -3.414,4.526 z"
   id="path52"
   inkscape:connector-curvature="0"
   style="clip-rule:evenodd;fill:#b15972;fill-rule:evenodd" />
	<path
   d="m 62.224,389.795 c 2.314,0.271 3.673,1.591 3.709,3.862 0.037,2.363 -1.579,3.742 -3.739,3.813 -2.5,0.083 -4.112,-1.557 -3.967,-4.054 0.127,-2.2 1.683,-3.478 3.997,-3.621 z"
   id="path54"
   inkscape:connector-curvature="0"
   style="clip-rule:evenodd;fill:#b15972;fill-rule:evenodd" />
	<path
   d="m 122.312,370.881 c 2.108,0.544 3.632,1.783 3.608,4.033 -0.027,2.473 -1.494,4.065 -4.05,3.907 -2.224,-0.138 -3.671,-1.698 -3.703,-3.878 -0.037,-2.536 1.796,-3.654 4.145,-4.062 z"
   id="path56"
   inkscape:connector-curvature="0"
   style="clip-rule:evenodd;fill:#b15972;fill-rule:evenodd" />
	<path
   d="m 140.385,384.896 c 2.063,0.577 3.674,1.78 3.529,4.112 -0.158,2.525 -1.879,4.038 -4.344,3.738 -2.157,-0.263 -3.635,-1.94 -3.362,-4.229 0.262,-2.194 1.82,-3.45 4.177,-3.621 z"
   id="path58"
   inkscape:connector-curvature="0"
   style="clip-rule:evenodd;fill:#b15972;fill-rule:evenodd" />
	<path
   d="m 58.804,432.774 c 2.363,0.184 3.965,1.392 4.066,3.638 0.111,2.468 -1.434,4.169 -3.938,4.108 -2.201,-0.054 -3.736,-1.59 -3.753,-3.862 -0.018,-2.265 1.429,-3.563 3.625,-3.884 z"
   id="path60"
   inkscape:connector-curvature="0"
   style="clip-rule:evenodd;fill:#b15972;fill-rule:evenodd" />
	<path
   d="m 54.193,417.868 c -2.321,-0.351 -3.834,-1.62 -3.82,-3.903 0.016,-2.502 1.582,-4.153 4.111,-3.966 2.185,0.162 3.621,1.642 3.499,4.051 -0.12,2.383 -1.655,3.446 -3.79,3.818 z"
   id="path62"
   inkscape:connector-curvature="0"
   style="clip-rule:evenodd;fill:#b15972;fill-rule:evenodd" />
	<path
   d="m 472.168,402.796 c 0.508,-2.286 1.815,-3.785 4.124,-3.56 2,0.195 3.378,1.668 3.312,3.73 -0.07,2.245 -1.474,3.818 -3.801,3.739 -2.324,-0.079 -3.402,-1.751 -3.635,-3.909 z"
   id="path64"
   inkscape:connector-curvature="0"
   style="clip-rule:evenodd;fill:#ffffff;fill-rule:evenodd" />
	<path
   d="m 73.261,450.789 c 2.526,0.063 3.933,1.362 4.044,3.636 0.124,2.519 -1.298,4.241 -3.86,4.112 -2.152,-0.108 -3.643,-1.493 -3.627,-3.92 0.015,-2.372 1.197,-3.675 3.443,-3.828 z"
   id="path66"
   inkscape:connector-curvature="0"
   style="clip-rule:evenodd;fill:#b15972;fill-rule:evenodd" />
	<path
   d="m 82.031,377.545 c -0.525,2.527 -1.778,3.869 -4.127,3.69 -2.217,-0.168 -3.879,-1.376 -3.755,-3.702 0.131,-2.46 1.804,-3.821 4.317,-3.673 2.406,0.141 3.197,1.892 3.565,3.685 z"
   id="path68"
   inkscape:connector-curvature="0"
   style="clip-rule:evenodd;fill:#b15972;fill-rule:evenodd" />
	<path
   d="m 98.078,365.791 c 2.243,0.029 3.768,1.1 3.969,3.441 0.209,2.434 -1.348,3.686 -3.542,3.922 -2.4,0.259 -3.791,-1.287 -3.986,-3.467 -0.204,-2.269 1.103,-3.685 3.559,-3.896 z"
   id="path70"
   inkscape:connector-curvature="0"
   style="clip-rule:evenodd;fill:#b15972;fill-rule:evenodd" />
</g>
</svg>