<?xml version="1.0" encoding="utf-8"?>
<!-- Generator: Adobe Illustrator 16.0.0, SVG Export Plug-In . SVG Version: 6.00 Build 0)  -->
<!DOCTYPE svg PUBLIC "-//W3C//DTD SVG 1.1//EN" "http://www.w3.org/Graphics/SVG/1.1/DTD/svg11.dtd">
<svg version="1.1" id="Calque_1" xmlns="http://www.w3.org/2000/svg" xmlns:xlink="http://www.w3.org/1999/xlink" x="0px" y="0px"
	 width="595.28px" height="841.89px" viewBox="0 0 595.28 841.89" enable-background="new 0 0 595.28 841.89" xml:space="preserve">
<g>
	<path display="none" fill-rule="evenodd" clip-rule="evenodd" fill="#FEFDFE" d="M586.928,505.869c-191.976,0-383.951,0-575.927,0
		c0-55.326,0-110.652,0-165.979c191.976,0,383.951,0,575.927,0C586.928,395.217,586.928,450.543,586.928,505.869z M394.716,442.072
		c5.159,0,9.655,0.229,14.117-0.052c7.249-0.456,12.304-6.832,11.634-14.049c-0.397-4.277-2.771-7.328-5.935-10.069
		c0.708-1.303,1.433-2.396,1.927-3.585c2.024-4.873,0.221-10.225-4.307-12.987c-3.709-2.264-14.651-2.155-16.709,0.259
		c-0.473,0.554-0.695,1.49-0.698,2.251C394.703,416.444,394.716,429.048,394.716,442.072z M243.143,453.463
		c1.698,0.339,3.209-0.223,3.866-1.153c2.237-3.168-0.077-7.093,1.323-10.49c11.6,2.539,16.655-1.522,16.665-13.335
		c0.002-2.165,0.037-4.33-0.013-6.494c-0.154-6.721-4.449-11.283-10.652-11.36c-6.303-0.078-10.964,4.193-11.122,10.943
		C242.961,432.208,243.143,442.853,243.143,453.463z M341.418,430.074c-3.247,1.021-3.247,1.021-4.66,4.035
		c-1.678,3.575-5.441,5.091-8.711,3.372c-1.658-0.872-2.906-2.205-3.188-4.207c-0.347-2.464,1.85-2.478,3.18-3.12
		c3.73-1.802,7.5-3.551,11.365-5.032c2.185-0.838,2.583-2.194,2.414-4.236c-0.482-5.858-5.016-10.185-10.847-10.242
		c-5.853-0.058-10.547,4.099-10.946,10.007c-0.246,3.645-0.16,7.32-0.054,10.977c0.194,6.701,5.193,11.565,11.401,11.236
		C337.6,442.533,341.963,436.977,341.418,430.074z M226.418,430.063c-3.235,1.041-3.235,1.041-4.653,4.059
		c-1.684,3.581-5.442,5.082-8.716,3.352c-1.658-0.875-2.905-2.21-3.176-4.214c-0.333-2.462,1.867-2.468,3.196-3.11
		c3.73-1.803,7.5-3.553,11.366-5.033c2.196-0.841,2.565-2.217,2.395-4.248c-0.491-5.86-5.029-10.174-10.865-10.223
		c-5.848-0.049-10.533,4.118-10.927,10.03c-0.243,3.646-0.16,7.321-0.051,10.979c0.199,6.695,5.218,11.556,11.427,11.209
		C222.646,442.515,227.008,436.934,226.418,430.063z M571.848,430.004c-2.349,0.437-3.931,1.153-4.555,3.505
		c-0.891,3.36-3.308,4.88-6.779,4.483c-3.533-0.403-4.993-2.669-5.483-6.239c4.862-2.184,9.481-4.39,14.212-6.326
		c2.182-0.893,3.009-2.082,2.888-4.475c-0.285-5.626-4.458-10.004-10.149-10.287c-5.866-0.292-10.595,3.292-11.209,8.984
		c-0.427,3.954-0.396,7.984-0.236,11.966c0.274,6.893,5.151,11.598,11.344,11.243C567.958,442.511,572.05,437.415,571.848,430.004z
		 M168.688,428.142c-3.682,0.392-4.833,2.249-3.725,5.772c1.596,5.071,6.987,9.02,12.521,8.963
		c5.721-0.06,11.806-4.283,12.361-9.688c1.13-11.018,0.464-22.094,0.357-33.388c-5.868,0-11.186,0.149-16.49-0.055
		c-3.249-0.125-4.285,1.395-4.504,4.604c5.579,0,10.864,0,16.608,0c0,9.097,0.25,17.882-0.112,26.644
		c-0.165,3.988-2.906,6.646-7.046,7.271c-3.878,0.586-6.703-1.079-8.764-4.355C168.754,432.098,169.299,430.011,168.688,428.142z
		 M516.512,399.741c-2.26,0.406-4.711,0.286-4.503,3.044c0.341,4.504-0.372,8.615-4.175,12.773c3.897-0.28,4.22,1.352,4.133,3.597
		c-0.152,3.982-0.098,7.974-0.028,11.96c0.122,7.055,4.986,12.037,11.382,11.75c6.451-0.29,10.53-5.367,10.161-12.704
		c-2.319,0.505-4.13,1.117-4.922,3.992c-0.822,2.987-3.512,4.289-6.729,3.82c-2.771-0.404-4.813-2.022-4.94-4.781
		c-0.262-5.715-0.078-11.45-0.078-16.385c4.582-3.282,11.82,2.902,14.224-6.011c-5.044,0-9.63,0-14.524,0
		C516.512,406.914,516.512,403.464,516.512,399.741z M300.976,417.396c-1.726-5.226-4.931-7.47-10.018-6.584
		c-3.653,0.636-7.01,4.671-6.627,8.255c0.538,5.043,3.536,7.672,8.628,7.864c0.331,0.013,0.676,0.031,0.987,0.133
		c2.752,0.899,4.863,2.597,4.74,5.646c-0.108,2.673-1.669,4.706-4.521,5.21c-3.098,0.547-5.665-0.377-7.015-3.381
		c-0.587-1.308-0.711-2.822-1.05-4.258c-4.174,1.451-4.174,1.451-4.033,3.336c0.335,4.482,5.472,9.06,10.377,9.247
		c5.289,0.202,9.917-3.516,10.638-8.547c0.892-6.212-1.969-9.492-10.078-11.545c-2.006-0.508-3.914-1.118-4.026-3.678
		c-0.075-1.72,0.843-2.788,2.349-3.448c2.065-0.904,3.67-0.104,4.631,1.656C297.582,420.273,299.137,418.401,300.976,417.396z
		 M375.77,442.244c2.604-0.382,4.438-0.796,4.388-3.584c-0.113-6.322,0.146-12.661-0.218-18.965
		c-0.296-5.117-4.927-8.897-10.208-9.038c-5.465-0.145-10.415,3.137-10.76,8.272c-0.516,7.696-0.134,15.452-0.134,23.221
		c3.507-0.119,4.36-1.882,4.226-4.888c-0.21-4.65-0.083-9.317-0.047-13.978c0.037-4.947,2.349-8.004,6.107-8.18
		c3.876-0.182,6.575,3.084,6.63,8.224C375.819,429.472,375.77,435.617,375.77,442.244z M452.669,422.873
		c4.707-1.611,4.981-2.149,3.343-5.818c-2.03-4.548-6.085-6.83-11.276-6.345c-4.728,0.441-8.892,3.834-9.235,8.916
		c-0.509,7.487-0.131,15.034-0.131,22.563c3.705-0.16,4.742-1.921,4.58-5.209c-0.254-5.135-0.189-10.297-0.017-15.439
		c0.157-4.687,4.007-7.383,8.093-6.043C451.469,416.628,452.145,419.489,452.669,422.873z M495.114,430.341
		c-2.63,0.052-4.017,1.379-4.884,3.893c-0.965,2.797-3.237,4.091-6.293,3.785c-2.572-0.259-4.258-1.571-5.188-4.003
		c-0.681-1.779-0.559-3.6-0.563-5.421c-0.014-5.884-0.005-11.767-0.005-17.737c-3.463,0.664-4.601,2.068-4.456,4.979
		c0.257,5.148,0.01,10.318,0.095,15.477c0.111,6.874,4.764,11.635,11.015,11.572C490.16,442.833,496.752,437.431,495.114,430.341z
		 M133.363,359.417c-0.245-3.49-2.382-5.242-5.513-5.17c-3.134,0.072-5.322,1.872-5.1,5.368c0.211,3.345,2.419,5.15,5.527,5.148
		C131.524,364.76,133.353,362.737,133.363,359.417z M40.792,438.454c-3.062,0.332-4.768,2.29-4.681,5.26
		c0.099,3.383,1.984,5.654,5.667,5.404c3.386-0.23,5.137-2.56,4.902-5.693C46.442,440.231,44.156,438.572,40.792,438.454z
		 M147.801,457.407c-3.696,0.123-5.63,2.054-5.701,5.256c-0.071,3.248,1.842,5.329,5.246,5.274c3.27-0.052,5.416-1.935,5.494-5.206
		C152.918,459.397,150.71,457.747,147.801,457.407z M158.113,378.403c-0.345-3.391-2.236-5.39-5.75-5.483
		c-3.317-0.088-4.877,2.215-4.971,5.069c-0.115,3.544,2.208,5.546,5.64,5.628C156.219,383.694,157.621,381.473,158.113,378.403z
		 M39.814,385.164c0.31,2.844,1.917,4.912,5.322,4.749c3.284-0.157,5.167-2.221,5.166-5.447c0-3.312-2.119-5.378-5.311-5.179
		C42.001,379.475,39.832,381.32,39.814,385.164z M35.586,408.201c-3.003,0.611-5.192,2.306-5.074,5.604
		c0.113,3.159,1.93,5.397,5.313,5.288c3.251-0.104,5.207-2.07,5.151-5.42C40.92,410.33,38.785,408.72,35.586,408.201z
		 M61.546,473.042c2.421-0.51,4.734-1.911,4.459-5.398c-0.25-3.188-2.132-5.267-5.462-5.179c-3.309,0.087-5.323,2.202-5.163,5.42
		C55.534,470.993,57.464,473.003,61.546,473.042z M89.036,485.722c3.452-0.37,5.746-2.017,5.732-5.308
		c-0.013-3.2-2.196-5.428-5.359-5.4c-3.033,0.026-5.425,1.822-5.437,5.274C83.961,483.684,86.142,485.238,89.036,485.722z
		 M67.242,357.76c-3.038,0.355-5.211,1.785-5.309,5.212c-0.099,3.474,1.925,5.182,5.194,5.198c3.276,0.016,5.4-1.915,5.498-5.129
		C72.725,359.776,70.682,357.968,67.242,357.76z M120.812,473.065c-3.119,0.512-5.491,2.146-5.582,5.343
		c-0.089,3.152,1.882,5.437,5.208,5.377c3.111-0.057,5.39-1.873,5.526-5.188C126.102,475.232,123.933,473.599,120.812,473.065z
		 M96.817,348.711c-3.321,0.224-5.021,2.124-4.955,5.469c0.069,3.485,2.245,5.114,5.482,5.011c3.311-0.106,5.319-2.261,5.238-5.454
		C102.5,350.45,100.196,348.848,96.817,348.711z M115.987,465.537c2.09-0.308,3.829-1.168,3.989-3.608
		c0.152-2.329-0.974-3.913-3.378-4.069c-2.543-0.165-4.243,1.209-4.361,3.747C112.13,463.908,113.619,465.219,115.987,465.537z
		 M93.484,459.09c-2.125,0.503-3.905,1.421-3.816,3.863c0.09,2.48,1.43,4.103,4.09,3.841c2.257-0.223,3.598-1.664,3.521-3.996
		C97.201,460.43,95.685,459.338,93.484,459.09z M136.661,454.873c2.125-0.621,3.716-1.867,3.414-4.526
		c-0.27-2.376-1.775-3.605-4.088-3.346c-2.304,0.259-3.553,1.893-3.413,4.157C132.712,453.403,134.043,454.785,136.661,454.873z
		 M62.224,389.795c-2.313,0.144-3.87,1.421-3.997,3.621c-0.145,2.497,1.467,4.136,3.967,4.054c2.16-0.071,3.776-1.449,3.739-3.813
		C65.897,391.386,64.538,390.065,62.224,389.795z M122.312,370.881c-2.349,0.408-4.181,1.526-4.145,4.062
		c0.032,2.18,1.479,3.74,3.703,3.878c2.556,0.159,4.023-1.434,4.05-3.907C125.944,372.664,124.42,371.425,122.312,370.881z
		 M140.385,384.896c-2.357,0.17-3.915,1.426-4.177,3.622c-0.273,2.289,1.205,3.966,3.362,4.229c2.465,0.3,4.186-1.213,4.344-3.738
		C144.059,386.677,142.448,385.473,140.385,384.896z M58.804,432.774c-2.195,0.32-3.643,1.618-3.626,3.884
		c0.017,2.272,1.552,3.809,3.753,3.862c2.505,0.061,4.049-1.641,3.938-4.108C62.769,434.166,61.167,432.958,58.804,432.774z
		 M54.193,417.868c2.135-0.372,3.67-1.436,3.791-3.818c0.122-2.409-1.314-3.889-3.499-4.051c-2.529-0.187-4.095,1.463-4.111,3.966
		C50.358,416.248,51.872,417.517,54.193,417.868z M472.168,402.796c0.233,2.158,1.312,3.83,3.635,3.909
		c2.327,0.08,3.73-1.494,3.801-3.739c0.066-2.062-1.312-3.535-3.312-3.73C473.983,399.012,472.676,400.51,472.168,402.796z
		 M73.261,450.789c-2.246,0.153-3.427,1.456-3.442,3.828c-0.016,2.427,1.475,3.812,3.627,3.92c2.562,0.129,3.984-1.594,3.86-4.112
		C77.193,452.151,75.787,450.852,73.261,450.789z M82.031,377.545c-0.368-1.793-1.159-3.544-3.565-3.685
		c-2.513-0.147-4.186,1.213-4.317,3.673c-0.124,2.326,1.539,3.533,3.755,3.702C80.253,381.414,81.506,380.073,82.031,377.545z
		 M98.078,365.791c-2.457,0.212-3.763,1.627-3.559,3.896c0.196,2.18,1.586,3.726,3.986,3.467c2.194-0.236,3.751-1.488,3.542-3.922
		C101.846,366.89,100.321,365.82,98.078,365.791z"/>
	<path fill-rule="evenodd" clip-rule="evenodd" fill="#5E3750" d="M394.716,442.072c0-13.024-0.013-25.628,0.029-38.231
		c0.003-0.761,0.226-1.697,0.698-2.251c2.058-2.414,13-2.522,16.709-0.259c4.527,2.762,6.331,8.114,4.307,12.987
		c-0.494,1.189-1.219,2.282-1.927,3.585c3.163,2.741,5.537,5.792,5.935,10.069c0.67,7.217-4.385,13.593-11.634,14.049
		C404.371,442.301,399.875,442.072,394.716,442.072z M399.339,437.679c5.88-0.206,11.919,1.846,15.64-4.326
		c1.782-2.957,1.629-6.133-0.371-8.895c-4-5.524-9.789-3.183-15.269-3.472C399.339,426.578,399.339,431.82,399.339,437.679z
		 M399.349,416.027c4.471-0.462,9.204,1.947,12.512-2.672c1.35-1.885,1.473-4.115-0.062-6.04c-3.374-4.229-7.881-3.095-12.45-2.708
		C399.349,408.46,399.349,412.029,399.349,416.027z"/>
	<path fill-rule="evenodd" clip-rule="evenodd" fill="#5E3750" d="M243.143,453.463c0-10.61-0.182-21.255,0.066-31.889
		c0.158-6.75,4.819-11.021,11.122-10.943c6.203,0.077,10.498,4.639,10.652,11.36c0.05,2.164,0.015,4.329,0.013,6.494
		c-0.01,11.813-5.065,15.874-16.665,13.335c-1.399,3.397,0.914,7.322-1.323,10.49C246.352,453.24,244.841,453.802,243.143,453.463z
		 M247.922,426.345c0,1.826-0.045,3.652,0.009,5.477c0.112,3.747,2.157,5.882,5.8,6.167c3.731,0.292,6.146-1.678,6.439-5.373
		c0.313-3.953,0.287-7.963,0.018-11.921c-0.257-3.777-2.946-5.678-6.438-5.501c-3.515,0.179-5.741,2.372-5.821,6.173
		C247.895,423.025,247.924,424.686,247.922,426.345z"/>
	<path fill-rule="evenodd" clip-rule="evenodd" fill="#5E3750" d="M341.418,430.074c0.545,6.902-3.818,12.459-10.045,12.79
		c-6.208,0.329-11.207-4.535-11.401-11.236c-0.106-3.656-0.192-7.332,0.054-10.977c0.399-5.908,5.094-10.065,10.946-10.007
		c5.831,0.057,10.364,4.384,10.847,10.242c0.169,2.042-0.229,3.398-2.414,4.236c-3.865,1.481-7.635,3.23-11.365,5.032
		c-1.33,0.643-3.526,0.656-3.18,3.12c0.281,2.002,1.529,3.335,3.188,4.207c3.27,1.719,7.033,0.203,8.711-3.372
		C338.171,431.096,338.171,431.096,341.418,430.074z M325.205,426.286c4.013-1.894,8.217-3.062,11.887-5.665
		c-1.174-4.17-3.718-6.079-7.725-5.272C325.283,416.171,324.057,419.497,325.205,426.286z"/>
	<path fill-rule="evenodd" clip-rule="evenodd" fill="#5E3750" d="M226.418,430.063c0.589,6.871-3.772,12.452-10.005,12.8
		c-6.209,0.347-11.228-4.514-11.427-11.209c-0.109-3.657-0.191-7.333,0.051-10.979c0.394-5.912,5.079-10.08,10.927-10.03
		c5.836,0.049,10.374,4.362,10.865,10.223c0.17,2.031-0.199,3.407-2.395,4.248c-3.866,1.48-7.636,3.23-11.366,5.033
		c-1.33,0.643-3.529,0.648-3.196,3.11c0.271,2.004,1.518,3.339,3.176,4.214c3.274,1.73,7.032,0.229,8.716-3.352
		C223.184,431.104,223.184,431.104,226.418,430.063z M222.225,421.013c-2.088-4.907-4.705-6.61-7.961-5.682
		c-4.083,1.164-5.31,4.36-3.929,10.908C214.251,424.519,218.086,422.832,222.225,421.013z"/>
	<path fill-rule="evenodd" clip-rule="evenodd" fill="#5E3750" d="M571.848,430.004c0.202,7.411-3.89,12.507-9.969,12.854
		c-6.192,0.354-11.069-4.351-11.344-11.243c-0.159-3.982-0.19-8.013,0.236-11.966c0.614-5.692,5.343-9.276,11.209-8.984
		c5.691,0.283,9.864,4.661,10.149,10.287c0.121,2.393-0.706,3.582-2.888,4.475c-4.73,1.937-9.35,4.143-14.212,6.326
		c0.49,3.57,1.95,5.836,5.483,6.239c3.472,0.396,5.889-1.123,6.779-4.483C567.917,431.157,569.499,430.44,571.848,430.004z
		 M555.213,426.587c4.332-2.199,8.682-3.277,12.267-5.946c-1.801-4.305-4.346-6.262-7.356-5.403
		C554.611,416.81,554.663,421.195,555.213,426.587z"/>
	<path fill-rule="evenodd" clip-rule="evenodd" fill="#5E3750" d="M168.688,428.142c0.611,1.869,0.066,3.956,1.206,5.767
		c2.061,3.276,4.886,4.941,8.764,4.355c4.14-0.625,6.881-3.282,7.046-7.271c0.362-8.762,0.112-17.547,0.112-26.644
		c-5.745,0-11.029,0-16.608,0c0.219-3.209,1.255-4.729,4.504-4.604c5.304,0.204,10.622,0.055,16.49,0.055
		c0.107,11.294,0.773,22.37-0.357,33.388c-0.555,5.405-6.64,9.629-12.361,9.688c-5.534,0.057-10.925-3.892-12.521-8.963
		C163.854,430.391,165.006,428.533,168.688,428.142z"/>
	<path fill-rule="evenodd" clip-rule="evenodd" fill="#5E3750" d="M516.512,399.741c0,3.724,0,7.173,0,11.057
		c4.895,0,9.48,0,14.524,0c-2.403,8.913-9.642,2.729-14.224,6.011c0,4.935-0.184,10.67,0.078,16.385
		c0.127,2.759,2.169,4.377,4.94,4.781c3.217,0.469,5.906-0.833,6.729-3.82c0.792-2.875,2.603-3.487,4.922-3.992
		c0.369,7.337-3.71,12.414-10.161,12.704c-6.396,0.287-11.26-4.695-11.382-11.75c-0.069-3.986-0.124-7.979,0.028-11.96
		c0.087-2.246-0.235-3.877-4.133-3.597c3.803-4.159,4.516-8.27,4.175-12.773C511.801,400.027,514.252,400.147,516.512,399.741z"/>
	<path fill-rule="evenodd" clip-rule="evenodd" fill="#5E3750" d="M300.976,417.396c-1.839,1.006-3.394,2.877-5.016-0.094
		c-0.961-1.76-2.566-2.56-4.631-1.656c-1.506,0.66-2.424,1.728-2.349,3.448c0.112,2.56,2.02,3.17,4.026,3.678
		c8.109,2.053,10.97,5.333,10.078,11.545c-0.721,5.031-5.349,8.749-10.638,8.547c-4.905-0.188-10.042-4.765-10.377-9.247
		c-0.141-1.885-0.141-1.885,4.033-3.336c0.338,1.436,0.463,2.95,1.05,4.258c1.35,3.004,3.917,3.928,7.015,3.381
		c2.851-0.504,4.413-2.537,4.521-5.21c0.123-3.049-1.988-4.746-4.74-5.646c-0.311-0.102-0.656-0.12-0.987-0.133
		c-5.092-0.192-8.09-2.821-8.628-7.864c-0.383-3.584,2.974-7.62,6.627-8.255C296.045,409.926,299.25,412.17,300.976,417.396z"/>
	<path fill-rule="evenodd" clip-rule="evenodd" fill="#5E3750" d="M375.77,442.244c0-6.627,0.05-12.772-0.016-18.915
		c-0.055-5.139-2.754-8.405-6.63-8.224c-3.759,0.176-6.07,3.233-6.107,8.18c-0.036,4.66-0.163,9.327,0.047,13.978
		c0.135,3.006-0.719,4.769-4.226,4.888c0-7.769-0.382-15.524,0.134-23.221c0.345-5.135,5.295-8.417,10.76-8.272
		c5.281,0.14,9.912,3.921,10.208,9.038c0.364,6.304,0.104,12.643,0.218,18.965C380.207,441.448,378.374,441.862,375.77,442.244z"/>
	<path fill-rule="evenodd" clip-rule="evenodd" fill="#5E3750" d="M452.669,422.873c-0.524-3.384-1.2-6.245-4.644-7.375
		c-4.086-1.34-7.936,1.356-8.093,6.043c-0.173,5.142-0.237,10.304,0.017,15.439c0.162,3.288-0.875,5.049-4.58,5.209
		c0-7.529-0.378-15.076,0.131-22.563c0.344-5.082,4.508-8.475,9.235-8.916c5.191-0.484,9.246,1.797,11.276,6.345
		C457.65,420.724,457.376,421.262,452.669,422.873z"/>
	<path fill-rule="evenodd" clip-rule="evenodd" fill="#5E3750" d="M495.114,430.341c1.638,7.09-4.954,12.492-10.279,12.546
		c-6.251,0.063-10.903-4.698-11.015-11.572c-0.085-5.159,0.162-10.329-0.095-15.477c-0.145-2.912,0.993-4.315,4.456-4.979
		c0,5.97-0.009,11.853,0.005,17.737c0.005,1.821-0.117,3.642,0.563,5.421c0.93,2.432,2.615,3.744,5.188,4.003
		c3.056,0.306,5.328-0.988,6.293-3.785C491.098,431.72,492.484,430.393,495.114,430.341z"/>
	<path fill-rule="evenodd" clip-rule="evenodd" fill="#EE2542" d="M133.363,359.417c-0.011,3.321-1.839,5.344-5.086,5.346
		c-3.108,0.002-5.316-1.803-5.527-5.148c-0.222-3.496,1.966-5.296,5.1-5.368C130.981,354.174,133.118,355.927,133.363,359.417z"/>
	<path fill-rule="evenodd" clip-rule="evenodd" fill="#EE2542" d="M40.792,438.454c3.363,0.118,5.65,1.777,5.889,4.971
		c0.234,3.134-1.517,5.463-4.902,5.693c-3.684,0.25-5.569-2.021-5.667-5.404C36.025,440.744,37.73,438.786,40.792,438.454z"/>
	<path fill-rule="evenodd" clip-rule="evenodd" fill="#EE2542" d="M147.801,457.407c2.909,0.34,5.117,1.99,5.038,5.324
		c-0.078,3.271-2.224,5.154-5.494,5.206c-3.403,0.055-5.317-2.026-5.246-5.274C142.171,459.461,144.105,457.53,147.801,457.407z"/>
	<path fill-rule="evenodd" clip-rule="evenodd" fill="#EE2542" d="M158.113,378.403c-0.492,3.069-1.894,5.291-5.082,5.214
		c-3.431-0.082-5.755-2.084-5.64-5.628c0.093-2.854,1.653-5.158,4.971-5.069C155.876,373.014,157.768,375.012,158.113,378.403z"/>
	<path fill-rule="evenodd" clip-rule="evenodd" fill="#EE2542" d="M39.814,385.164c0.018-3.844,2.187-5.689,5.177-5.876
		c3.192-0.199,5.311,1.867,5.311,5.179c0,3.226-1.882,5.29-5.166,5.447C41.731,390.076,40.124,388.008,39.814,385.164z"/>
	<path fill-rule="evenodd" clip-rule="evenodd" fill="#EE2542" d="M35.586,408.201c3.199,0.519,5.334,2.128,5.39,5.472
		c0.056,3.35-1.899,5.315-5.151,5.42c-3.383,0.109-5.2-2.129-5.313-5.288C30.394,410.507,32.583,408.813,35.586,408.201z"/>
	<path fill-rule="evenodd" clip-rule="evenodd" fill="#EE2542" d="M61.546,473.042c-4.082-0.039-6.012-2.049-6.166-5.157
		c-0.16-3.218,1.854-5.333,5.163-5.42c3.33-0.088,5.212,1.99,5.462,5.179C66.28,471.131,63.967,472.532,61.546,473.042z"/>
	<path fill-rule="evenodd" clip-rule="evenodd" fill="#EE2542" d="M89.036,485.722c-2.895-0.483-5.075-2.038-5.063-5.434
		c0.012-3.452,2.404-5.248,5.437-5.274c3.163-0.027,5.346,2.2,5.359,5.4C94.782,483.705,92.488,485.352,89.036,485.722z"/>
	<path fill-rule="evenodd" clip-rule="evenodd" fill="#EE2542" d="M67.242,357.76c3.44,0.208,5.483,2.016,5.383,5.281
		c-0.098,3.214-2.222,5.145-5.498,5.129c-3.269-0.016-5.292-1.724-5.194-5.198C62.031,359.545,64.205,358.116,67.242,357.76z"/>
	<path fill-rule="evenodd" clip-rule="evenodd" fill="#EE2542" d="M120.812,473.065c3.121,0.533,5.29,2.167,5.152,5.532
		c-0.136,3.314-2.415,5.131-5.526,5.188c-3.326,0.06-5.296-2.225-5.208-5.377C115.321,475.211,117.693,473.577,120.812,473.065z"/>
	<path fill-rule="evenodd" clip-rule="evenodd" fill="#EE2542" d="M96.817,348.711c3.379,0.137,5.683,1.739,5.766,5.026
		c0.081,3.192-1.928,5.348-5.238,5.454c-3.237,0.103-5.413-1.526-5.482-5.011C91.796,350.835,93.496,348.935,96.817,348.711z"/>
	<path fill-rule="evenodd" clip-rule="evenodd" fill="#B15972" d="M115.987,465.537c-2.368-0.318-3.857-1.629-3.75-3.931
		c0.118-2.538,1.817-3.912,4.361-3.747c2.404,0.156,3.53,1.74,3.378,4.069C119.816,464.369,118.077,465.229,115.987,465.537z"/>
	<path fill-rule="evenodd" clip-rule="evenodd" fill="#B15972" d="M93.484,459.09c2.2,0.248,3.716,1.34,3.795,3.708
		c0.077,2.332-1.264,3.773-3.521,3.996c-2.66,0.262-4-1.36-4.09-3.841C89.579,460.511,91.359,459.593,93.484,459.09z"/>
	<path fill-rule="evenodd" clip-rule="evenodd" fill="#B15972" d="M136.661,454.873c-2.617-0.088-3.948-1.47-4.087-3.715
		c-0.14-2.265,1.109-3.898,3.413-4.157c2.313-0.26,3.819,0.97,4.088,3.346C140.376,453.006,138.785,454.252,136.661,454.873z"/>
	<path fill-rule="evenodd" clip-rule="evenodd" fill="#B15972" d="M62.224,389.795c2.314,0.271,3.673,1.591,3.709,3.862
		c0.037,2.363-1.579,3.742-3.739,3.813c-2.5,0.083-4.112-1.557-3.967-4.054C58.354,391.216,59.91,389.938,62.224,389.795z"/>
	<path fill-rule="evenodd" clip-rule="evenodd" fill="#B15972" d="M122.312,370.881c2.108,0.544,3.632,1.783,3.608,4.033
		c-0.027,2.473-1.494,4.065-4.05,3.907c-2.224-0.138-3.671-1.698-3.703-3.878C118.13,372.407,119.963,371.289,122.312,370.881z"/>
	<path fill-rule="evenodd" clip-rule="evenodd" fill="#B15972" d="M140.385,384.896c2.063,0.577,3.674,1.78,3.529,4.112
		c-0.158,2.525-1.879,4.038-4.344,3.738c-2.157-0.263-3.635-1.94-3.362-4.229C136.47,386.323,138.028,385.067,140.385,384.896z"/>
	<path fill-rule="evenodd" clip-rule="evenodd" fill="#B15972" d="M58.804,432.774c2.363,0.184,3.965,1.392,4.066,3.638
		c0.111,2.468-1.434,4.169-3.938,4.108c-2.201-0.054-3.736-1.59-3.753-3.862C55.161,434.393,56.608,433.095,58.804,432.774z"/>
	<path fill-rule="evenodd" clip-rule="evenodd" fill="#B15972" d="M54.193,417.868c-2.321-0.351-3.834-1.62-3.82-3.903
		c0.016-2.502,1.582-4.153,4.111-3.966c2.185,0.162,3.621,1.642,3.499,4.051C57.863,416.433,56.328,417.496,54.193,417.868z"/>
	<path fill-rule="evenodd" clip-rule="evenodd" fill="#5E3750" d="M472.168,402.796c0.508-2.286,1.815-3.785,4.124-3.56
		c2,0.195,3.378,1.668,3.312,3.73c-0.07,2.245-1.474,3.818-3.801,3.739C473.479,406.626,472.401,404.954,472.168,402.796z"/>
	<path fill-rule="evenodd" clip-rule="evenodd" fill="#B15972" d="M73.261,450.789c2.526,0.063,3.933,1.362,4.044,3.636
		c0.124,2.519-1.298,4.241-3.86,4.112c-2.152-0.108-3.643-1.493-3.627-3.92C69.833,452.245,71.015,450.942,73.261,450.789z"/>
	<path fill-rule="evenodd" clip-rule="evenodd" fill="#B15972" d="M82.031,377.545c-0.525,2.527-1.778,3.869-4.127,3.69
		c-2.217-0.168-3.879-1.376-3.755-3.702c0.131-2.46,1.804-3.821,4.317-3.673C80.872,374.001,81.663,375.752,82.031,377.545z"/>
	<path fill-rule="evenodd" clip-rule="evenodd" fill="#B15972" d="M98.078,365.791c2.243,0.029,3.768,1.1,3.969,3.441
		c0.209,2.434-1.348,3.686-3.542,3.922c-2.4,0.259-3.791-1.287-3.986-3.467C94.315,367.418,95.622,366.002,98.078,365.791z"/>
</g>
</svg>
